<mxfile host="app.diagrams.net" modified="2023-06-10T20:07:52.509Z" agent="Mozilla/5.0 (Windows NT 10.0; Win64; x64) AppleWebKit/537.36 (KHTML, like Gecko) Chrome/114.0.0.0 Safari/537.36" version="21.3.8" etag="MeeknT6u5bMQ4gOK0q8C" type="github">
  <diagram name="Page-1" id="zTr2bIAa2uxgvoXN64V9">
    <mxGraphModel>
      <root>
        <mxCell id="0" />
        <mxCell id="1" parent="0" />
        <mxCell id="2" value="" style="ellipse;fillColor=strokeColor;" vertex="1" parent="1">
          <mxGeometry x="121" y="8" width="14" height="14" as="geometry" />
        </mxCell>
        <mxCell id="3" value="Start" style="rounded=1;absoluteArcSize=1;arcSize=14;whiteSpace=wrap;strokeWidth=2;" vertex="1" parent="1">
          <mxGeometry x="102" y="72" width="51" height="34" as="geometry" />
        </mxCell>
        <mxCell id="4" value="Read_Permissions" style="rounded=1;absoluteArcSize=1;arcSize=14;whiteSpace=wrap;strokeWidth=2;" vertex="1" parent="1">
          <mxGeometry x="57" y="175" width="141" height="34" as="geometry" />
        </mxCell>
        <mxCell id="5" value="Parse_Data" style="rounded=1;absoluteArcSize=1;arcSize=14;whiteSpace=wrap;strokeWidth=2;" vertex="1" parent="1">
          <mxGeometry x="80" y="278" width="95" height="34" as="geometry" />
        </mxCell>
        <mxCell id="6" value="Check_Vulnerabilities" style="rounded=1;absoluteArcSize=1;arcSize=14;whiteSpace=wrap;strokeWidth=2;" vertex="1" parent="1">
          <mxGeometry x="43" y="381" width="170" height="34" as="geometry" />
        </mxCell>
        <mxCell id="7" value="Alert_User" style="rounded=1;absoluteArcSize=1;arcSize=14;whiteSpace=wrap;strokeWidth=2;" vertex="1" parent="1">
          <mxGeometry x="82" y="484" width="92" height="34" as="geometry" />
        </mxCell>
        <mxCell id="8" value="" style="ellipse;shape=endState;fillColor=strokeColor;" vertex="1" parent="1">
          <mxGeometry x="121" y="568" width="14" height="14" as="geometry" />
        </mxCell>
        <mxCell id="9" value="" style="curved=1;startArrow=none;;exitX=0.48604910714285715;exitY=1;entryX=0.5059742647058824;entryY=0;" edge="1" parent="1" source="2" target="3">
          <mxGeometry relative="1" as="geometry">
            <Array as="points" />
          </mxGeometry>
        </mxCell>
        <mxCell id="10" value="Read permissions" style="curved=1;startArrow=none;;exitX=0.5059742647058824;exitY=1;entryX=0.5021609042553191;entryY=0;" edge="1" parent="1" source="3" target="4">
          <mxGeometry relative="1" as="geometry">
            <Array as="points" />
          </mxGeometry>
        </mxCell>
        <mxCell id="11" value="Parse data" style="curved=1;startArrow=none;;exitX=0.5021609042553191;exitY=1;entryX=0.5032072368421052;entryY=0;" edge="1" parent="1" source="4" target="5">
          <mxGeometry relative="1" as="geometry">
            <Array as="points" />
          </mxGeometry>
        </mxCell>
        <mxCell id="12" value="Check for vulnerabilities" style="curved=1;startArrow=none;;exitX=0.5032072368421052;exitY=1;entryX=0.49885110294117646;entryY=0;" edge="1" parent="1" source="5" target="6">
          <mxGeometry relative="1" as="geometry">
            <Array as="points" />
          </mxGeometry>
        </mxCell>
        <mxCell id="13" value="Alert user if vulnerabilities found" style="curved=1;startArrow=none;;exitX=0.49885110294117646;exitY=1;entryX=0.49787703804347827;entryY=0;" edge="1" parent="1" source="6" target="7">
          <mxGeometry relative="1" as="geometry">
            <Array as="points" />
          </mxGeometry>
        </mxCell>
        <mxCell id="14" value="" style="curved=1;startArrow=none;;exitX=0.49787703804347827;exitY=1;entryX=0.48604910714285715;entryY=0;" edge="1" parent="1" source="7" target="8">
          <mxGeometry relative="1" as="geometry">
            <Array as="points" />
          </mxGeometry>
        </mxCell>
      </root>
    </mxGraphModel>
  </diagram>
</mxfile>
